<svg width="22" height="22" viewBox="0 0 22 22" fill="none" xmlns="http://www.w3.org/2000/svg">
<rect width="22" height="22" rx="5" fill="#242748"/>
<path d="M10.2329 6.54054L11.9863 11.5135H8.47945L10.2329 6.54054ZM12.2055 18H19V17.3513C17.6849 17.1351 17.2466 17.1351 16.3699 14.7568C15.4932 12.3784 14.3973 9.35135 13.3014 6.54054L11.7671 2L10.6712 2.43243L5.63014 14.973C4.75342 17.1351 4.53425 17.3513 3 17.3513V18H8.47945V17.3513H7.82192C6.72603 17.1351 6.72603 16.9189 6.94521 15.8378C7.16438 14.7568 7.60274 13.6757 7.82192 13.027H12.2055C12.6438 13.8919 13.0822 15.1892 13.3014 16.0541C13.7397 17.1351 13.5205 17.3514 12.6438 17.5676H11.9863V18H12.2055Z" fill="white"/>
</svg>
